<svg width="22" height="22" viewBox="0 0 22 22" fill="none" xmlns="http://www.w3.org/2000/svg">
<path d="M14 21.7498H8C2.57 21.7498 0.25 19.4298 0.25 13.9998V7.99976C0.25 2.56976 2.57 0.249756 8 0.249756H14C19.43 0.249756 21.75 2.56976 21.75 7.99976V13.9998C21.75 19.4298 19.43 21.7498 14 21.7498ZM8 1.74976C3.39 1.74976 1.75 3.38976 1.75 7.99976V13.9998C1.75 18.6098 3.39 20.2498 8 20.2498H14C18.61 20.2498 20.25 18.6098 20.25 13.9998V7.99976C20.25 3.38976 18.61 1.74976 14 1.74976H8Z" fill="black"/>
<path d="M6.32997 14.2398C6.16997 14.2398 6.00997 14.1898 5.86997 14.0798C5.79183 14.02 5.72623 13.9455 5.6769 13.8604C5.62758 13.7753 5.5955 13.6813 5.5825 13.5838C5.5695 13.4863 5.57583 13.3872 5.60113 13.2921C5.62644 13.197 5.67022 13.1079 5.72997 13.0298L8.10997 9.93977C8.39997 9.56977 8.80997 9.32977 9.27997 9.26977C9.73997 9.20977 10.21 9.33977 10.58 9.62977L12.41 11.0698C12.48 11.1298 12.55 11.1298 12.6 11.1198C12.64 11.1198 12.71 11.0998 12.77 11.0198L15.08 8.03977C15.1397 7.96138 15.2145 7.89571 15.3 7.84662C15.3854 7.79753 15.4798 7.76601 15.5776 7.7539C15.6754 7.74179 15.7747 7.74934 15.8695 7.7761C15.9644 7.80287 16.0529 7.84831 16.13 7.90977C16.46 8.15977 16.52 8.62977 16.26 8.95977L13.95 11.9398C13.66 12.3098 13.25 12.5498 12.78 12.5998C12.31 12.6598 11.85 12.5298 11.48 12.2398L9.64997 10.7998C9.62434 10.7773 9.59384 10.7611 9.56086 10.7524C9.52789 10.7437 9.49335 10.7428 9.45997 10.7498C9.41997 10.7498 9.34997 10.7698 9.28997 10.8498L6.90997 13.9398C6.77997 14.1398 6.55997 14.2398 6.32997 14.2398V14.2398Z" fill="black"/>
</svg>
