<svg width="41" height="25" viewBox="0 0 41 25" fill="none" xmlns="http://www.w3.org/2000/svg">
<path d="M30.0248 0.935669C30.3431 0.935669 30.6483 1.0621 30.8733 1.28714C31.0984 1.51218 31.2248 1.81741 31.2248 2.13567V3.33567H33.6728C34.2122 3.33615 34.7446 3.45782 35.2306 3.6917C35.7166 3.92558 36.1439 4.26568 36.4808 4.68687L40.0352 9.12687C40.5466 9.76571 40.8251 10.5597 40.8248 11.3781V16.5357C40.8248 17.4904 40.4455 18.4061 39.7704 19.0813C39.0953 19.7564 38.1796 20.1357 37.2248 20.1357H36.0248C36.0248 21.4087 35.5191 22.6296 34.6189 23.5298C33.7187 24.43 32.4978 24.9357 31.2248 24.9357C29.9518 24.9357 28.7309 24.43 27.8307 23.5298C26.9305 22.6296 26.4248 21.4087 26.4248 20.1357H14.4248C14.4248 21.4087 13.9191 22.6296 13.0189 23.5298C12.1187 24.43 10.8978 24.9357 9.6248 24.9357C8.35177 24.9357 7.13087 24.43 6.23069 23.5298C5.33052 22.6296 4.8248 21.4087 4.8248 20.1357C4.18829 20.1357 3.57784 19.8828 3.12775 19.4327C2.67766 18.9826 2.4248 18.3722 2.4248 17.7357V15.3357H28.8248V2.13567C28.8248 1.81741 28.9512 1.51218 29.1763 1.28714C29.4013 1.0621 29.7065 0.935669 30.0248 0.935669ZM9.6248 17.7357C8.98829 17.7357 8.37784 17.9885 7.92775 18.4386C7.47766 18.8887 7.2248 19.4992 7.2248 20.1357C7.2248 20.7722 7.47766 21.3826 7.92775 21.8327C8.37784 22.2828 8.98829 22.5357 9.6248 22.5357C10.2613 22.5357 10.8718 22.2828 11.3219 21.8327C11.7719 21.3826 12.0248 20.7722 12.0248 20.1357C12.0248 19.4992 11.7719 18.8887 11.3219 18.4386C10.8718 17.9885 10.2613 17.7357 9.6248 17.7357ZM31.2248 17.7357C30.5883 17.7357 29.9778 17.9885 29.5277 18.4386C29.0777 18.8887 28.8248 19.4992 28.8248 20.1357C28.8248 20.7722 29.0777 21.3826 29.5277 21.8327C29.9778 22.2828 30.5883 22.5357 31.2248 22.5357C31.8613 22.5357 32.4718 22.2828 32.9219 21.8327C33.3719 21.3826 33.6248 20.7722 33.6248 20.1357C33.6248 19.4992 33.3719 18.8887 32.9219 18.4386C32.4718 17.9885 31.8613 17.7357 31.2248 17.7357ZM35.3816 17.7357H37.2248C37.5431 17.7357 37.8483 17.6092 38.0733 17.3842C38.2984 17.1592 38.4248 16.8539 38.4248 16.5357V11.3757C38.4243 11.1033 38.3312 10.8393 38.1608 10.6269L34.6088 6.18687C34.4966 6.04633 34.3542 5.93281 34.1922 5.85471C34.0302 5.77661 33.8527 5.73593 33.6728 5.73567H31.2248V15.3357C32.0674 15.3357 32.8951 15.5575 33.6247 15.9788C34.3544 16.4001 34.9603 17.006 35.3816 17.7357Z" fill="black"/>
<mask id="path-2-inside-1_563_22099" fill="white">
<path d="M0.562956 10.7835L6.12917 11.3575L7.15874 3.29546L9.97929 9.79199L13.3023 8.64392L13.1136 11.8929L18.7595 11.3575L14.7284 15.0011L5.03916 15.0011L0.562956 10.7835Z"/>
</mask>
<path d="M0.562956 10.7835L6.12917 11.3575L7.15874 3.29546L9.97929 9.79199L13.3023 8.64392L13.1136 11.8929L18.7595 11.3575L14.7284 15.0011L5.03916 15.0011L0.562956 10.7835Z" fill="black"/>
<path d="M6.12917 11.3575L5.56269 16.8511L10.9246 17.404L11.6074 12.0571L6.12917 11.3575ZM0.562956 10.7835L1.12944 5.2899L-15.0966 3.61671L-3.22436 14.803L0.562956 10.7835ZM14.7284 15.0011L14.7284 20.5238L16.8544 20.5238L18.4317 19.0982L14.7284 15.0011ZM18.7595 11.3575L22.4628 15.4546L34.818 4.2869L18.238 5.85941L18.7595 11.3575ZM13.1136 11.8929L7.60021 11.5728L7.22705 17.9988L13.6351 17.391L13.1136 11.8929ZM13.3023 8.64392L18.8158 8.96408L19.2939 0.730869L11.4989 3.42395L13.3023 8.64392ZM9.97929 9.79199L4.91341 11.9914L6.94976 16.6817L11.7827 15.012L9.97929 9.79199ZM7.15874 3.29546L12.2246 1.09605L4.22508 -17.3292L1.68051 2.59585L7.15874 3.29546ZM5.03916 15.0011L1.25184 19.0206L2.84719 20.5238L5.03916 20.5238L5.03916 15.0011ZM6.69566 5.86387L1.12944 5.2899L-0.00352951 16.2771L5.56269 16.8511L6.69566 5.86387ZM18.4317 19.0982L22.4628 15.4546L15.0562 7.26037L11.0251 10.904L18.4317 19.0982ZM18.238 5.85941L12.5922 6.39489L13.6351 17.391L19.2809 16.8555L18.238 5.85941ZM18.6271 12.2131L18.8158 8.96408L7.78888 8.32375L7.60021 11.5728L18.6271 12.2131ZM11.4989 3.42395L8.17585 4.57201L11.7827 15.012L15.1058 13.8639L11.4989 3.42395ZM15.0452 7.59258L12.2246 1.09605L2.09287 5.49487L4.91341 11.9914L15.0452 7.59258ZM1.68051 2.59585L0.650937 10.6579L11.6074 12.0571L12.637 3.99506L1.68051 2.59585ZM14.7284 9.47836L5.03916 9.47836L5.03916 20.5238L14.7284 20.5238L14.7284 9.47836ZM8.82648 10.9815L4.35028 6.76395L-3.22436 14.803L1.25184 19.0206L8.82648 10.9815Z" fill="black" mask="url(#path-2-inside-1_563_22099)"/>
<mask id="path-4-inside-2_563_22099" fill="white">
<path d="M28.2528 11.5323L25.9543 12.2984L24.4221 8.4677L23.6559 13.0646L22.1236 12.2984L22.1236 14.7733L27.5813 14.8249L28.2528 11.5323Z"/>
</mask>
<path d="M28.2528 11.5323L25.9543 12.2984L24.4221 8.4677L23.6559 13.0646L22.1236 12.2984L22.1236 14.7733L27.5813 14.8249L28.2528 11.5323Z" fill="black"/>
<path d="M25.9543 12.2984L27.7008 17.5377L22.7606 19.1844L20.8266 14.3495L25.9543 12.2984ZM28.2528 11.5323L26.5063 6.29293L35.574 3.27037L33.6641 12.6358L28.2528 11.5323ZM22.1236 14.7733L22.0715 20.2958L16.6009 20.2441L16.6009 14.7733L22.1236 14.7733ZM22.1236 12.2984L16.6009 12.2984L16.6009 3.36247L24.5935 7.35876L22.1236 12.2984ZM24.4221 8.4677L18.9745 7.55977L22.2194 -11.9096L29.5498 6.41664L24.4221 8.4677ZM27.5813 14.8249L32.9927 15.9284L32.0827 20.3904L27.5291 20.3474L27.5813 14.8249ZM23.6559 13.0646L29.1035 13.9725L27.8742 21.3483L21.1861 18.0043L23.6559 13.0646ZM24.2079 7.05908L26.5063 6.29293L29.9992 16.7716L27.7008 17.5377L24.2079 7.05908ZM16.6009 14.7733L16.6009 12.2984L27.6464 12.2984L27.6464 14.7733L16.6009 14.7733ZM29.5498 6.41664L31.0821 10.2473L20.8266 14.3495L19.2944 10.5188L29.5498 6.41664ZM22.1758 9.25082L27.6335 9.30239L27.5291 20.3474L22.0715 20.2958L22.1758 9.25082ZM22.17 13.7213L22.8414 10.4287L33.6641 12.6358L32.9927 15.9284L22.17 13.7213ZM24.5935 7.35876L26.1258 8.12491L21.1861 18.0043L19.6538 17.2381L24.5935 7.35876ZM18.2084 12.1567L18.9745 7.55977L29.8697 9.37564L29.1035 13.9725L18.2084 12.1567Z" fill="black" mask="url(#path-4-inside-2_563_22099)"/>
</svg>
