<svg width="25" height="25" viewBox="0 0 25 25" fill="none" xmlns="http://www.w3.org/2000/svg">
<path d="M7.65748 2.94995H5.75748C3.56748 2.94995 2.41748 4.09995 2.41748 6.27995V8.17995C2.41748 10.36 3.56748 11.51 5.74748 11.51H7.64748C9.82748 11.51 10.9775 10.36 10.9775 8.17995V6.27995C10.9875 4.09995 9.83748 2.94995 7.65748 2.94995Z" fill="white"/>
<path opacity="0.6" d="M19.0874 2.94995H17.1874C15.0074 2.94995 13.8574 4.09995 13.8574 6.27995V8.17995C13.8574 10.36 15.0074 11.51 17.1874 11.51H19.0874C21.2674 11.51 22.4174 10.36 22.4174 8.17995V6.27995C22.4174 4.09995 21.2674 2.94995 19.0874 2.94995Z" fill="white"/>
<path d="M19.0874 14.38H17.1874C15.0074 14.38 13.8574 15.53 13.8574 17.71V19.61C13.8574 21.79 15.0074 22.94 17.1874 22.94H19.0874C21.2674 22.94 22.4174 21.79 22.4174 19.61V17.71C22.4174 15.53 21.2674 14.38 19.0874 14.38Z" fill="white"/>
<path opacity="0.6" d="M7.65748 14.38H5.75748C3.56748 14.38 2.41748 15.53 2.41748 17.71V19.61C2.41748 21.8 3.56748 22.95 5.74748 22.95H7.64748C9.82748 22.95 10.9775 21.8 10.9775 19.62V17.72C10.9875 15.53 9.83748 14.38 7.65748 14.38Z" fill="white"/>
</svg>
