<svg width="21" height="24" viewBox="0 0 21 24" fill="none" xmlns="http://www.w3.org/2000/svg">
<path d="M20.0423 4.88078L15.4269 0.265399C15.2511 0.0939632 15.0148 -0.00136969 14.7692 1.48732e-05H5.53846C5.04883 1.48732e-05 4.57925 0.19452 4.23303 0.54074C3.88681 0.886961 3.69231 1.35654 3.69231 1.84617V3.69232H1.84615C1.35652 3.69232 0.886946 3.88683 0.540726 4.23305C0.194505 4.57927 0 5.04884 0 5.53847V22.1538C0 22.6435 0.194505 23.1131 0.540726 23.4593C0.886946 23.8055 1.35652 24 1.84615 24H14.7692C15.2589 24 15.7284 23.8055 16.0747 23.4593C16.4209 23.1131 16.6154 22.6435 16.6154 22.1538V20.3077H18.4615C18.9512 20.3077 19.4207 20.1132 19.767 19.767C20.1132 19.4207 20.3077 18.9512 20.3077 18.4615V5.53847C20.3091 5.29289 20.2137 5.05663 20.0423 4.88078ZM14.7692 22.1538H1.84615V5.53847H10.6961L14.7692 9.61155V22.1538ZM18.4615 18.4615H16.6154V9.23078C16.6168 8.9852 16.5214 8.74894 16.35 8.57309L11.7346 3.9577C11.5588 3.78627 11.3225 3.69094 11.0769 3.69232H5.53846V1.84617H14.3885L18.4615 5.91924V18.4615ZM12 14.7692C12 15.0141 11.9027 15.2488 11.7296 15.422C11.5565 15.5951 11.3217 15.6923 11.0769 15.6923H5.53846C5.29364 15.6923 5.05886 15.5951 4.88575 15.422C4.71263 15.2488 4.61538 15.0141 4.61538 14.7692C4.61538 14.5244 4.71263 14.2896 4.88575 14.1165C5.05886 13.9434 5.29364 13.8462 5.53846 13.8462H11.0769C11.3217 13.8462 11.5565 13.9434 11.7296 14.1165C11.9027 14.2896 12 14.5244 12 14.7692ZM12 18.4615C12 18.7064 11.9027 18.9411 11.7296 19.1143C11.5565 19.2874 11.3217 19.3846 11.0769 19.3846H5.53846C5.29364 19.3846 5.05886 19.2874 4.88575 19.1143C4.71263 18.9411 4.61538 18.7064 4.61538 18.4615C4.61538 18.2167 4.71263 17.9819 4.88575 17.8088C5.05886 17.6357 5.29364 17.5385 5.53846 17.5385H11.0769C11.3217 17.5385 11.5565 17.6357 11.7296 17.8088C11.9027 17.9819 12 18.2167 12 18.4615Z" fill="black"/>
</svg>
