<svg width="20" height="20" viewBox="0 0 20 20" fill="none" xmlns="http://www.w3.org/2000/svg">
<path d="M5.24 0H3.34C1.15 0 0 1.15 0 3.33V5.23C0 7.41 1.15 8.56 3.33 8.56H5.23C7.41 8.56 8.56 7.41 8.56 5.23V3.33C8.57 1.15 7.42 0 5.24 0Z" fill="black"/>
<path opacity="0.6" d="M16.6699 0H14.7699C12.5899 0 11.4399 1.15 11.4399 3.33V5.23C11.4399 7.41 12.5899 8.56 14.7699 8.56H16.6699C18.8499 8.56 19.9999 7.41 19.9999 5.23V3.33C19.9999 1.15 18.8499 0 16.6699 0Z" fill="black"/>
<path d="M16.6699 11.4301H14.7699C12.5899 11.4301 11.4399 12.5801 11.4399 14.7601V16.6601C11.4399 18.8401 12.5899 19.9901 14.7699 19.9901H16.6699C18.8499 19.9901 19.9999 18.8401 19.9999 16.6601V14.7601C19.9999 12.5801 18.8499 11.4301 16.6699 11.4301V11.4301Z" fill="black"/>
<path opacity="0.6" d="M5.24 11.4301H3.34C1.15 11.4301 0 12.5801 0 14.7601V16.6601C0 18.8501 1.15 20.0001 3.33 20.0001H5.23C7.41 20.0001 8.56 18.8501 8.56 16.6701V14.7701C8.57 12.5801 7.42 11.4301 5.24 11.4301V11.4301Z" fill="black"/>
</svg>
