<svg width="21" height="23" viewBox="0 0 21 23" fill="none" xmlns="http://www.w3.org/2000/svg">
<path d="M7.77124 5.05005C7.77124 4.78483 7.8766 4.53048 8.06413 4.34294C8.25167 4.15541 8.50602 4.05005 8.77124 4.05005H12.7712C13.0365 4.05005 13.2908 4.15541 13.4783 4.34294C13.6659 4.53048 13.7712 4.78483 13.7712 5.05005C13.7712 5.31527 13.6659 5.56962 13.4783 5.75716C13.2908 5.94469 13.0365 6.05005 12.7712 6.05005H8.77124C8.50602 6.05005 8.25167 5.94469 8.06413 5.75716C7.8766 5.56962 7.77124 5.31527 7.77124 5.05005Z" fill="black"/>
<path fill-rule="evenodd" clip-rule="evenodd" d="M20.1352 12.57C19.7722 12.855 19.3012 13.083 18.7332 13.268C18.8419 14.379 18.7169 15.5004 18.3662 16.5601C18.0155 17.6199 17.447 18.5945 16.6971 19.4213C15.9471 20.2482 15.0325 20.9089 14.0119 21.3611C12.9914 21.8133 11.8875 22.0469 10.7712 22.0469C9.65499 22.0469 8.55109 21.8133 7.53053 21.3611C6.50997 20.9089 5.59533 20.2482 4.84543 19.4213C4.09552 18.5945 3.52695 17.6199 3.17627 16.5601C2.82559 15.5004 2.70057 14.379 2.80924 13.268C2.24124 13.083 1.77024 12.855 1.40824 12.57C0.93824 12.2 0.623239 11.706 0.586239 11.112C0.551239 10.561 0.769239 10.093 0.987239 9.76305C1.20244 9.45048 1.45799 9.1677 1.74724 8.92205C1.88724 8.79905 2.02524 8.69005 2.15324 8.59505C2.11524 8.39005 2.07324 8.14205 2.03124 7.85505C1.85408 6.59452 1.7672 5.32296 1.77124 4.05005C1.77124 3.73605 1.90524 3.50205 1.96724 3.40305C2.04524 3.27805 2.13724 3.17105 2.22124 3.08505C2.38824 2.91005 2.60424 2.73205 2.84124 2.56105C3.32124 2.21305 3.98124 1.82205 4.76524 1.45605C6.32824 0.726049 8.47524 0.0500488 10.7712 0.0500488C13.0682 0.0500488 15.2142 0.727049 16.7772 1.45605C17.4512 1.76433 18.0953 2.13423 18.7012 2.56105C18.9382 2.73205 19.1542 2.91105 19.3212 3.08505C19.4052 3.17105 19.4972 3.27805 19.5752 3.40305C19.6372 3.50205 19.7712 3.73605 19.7712 4.05005C19.7712 5.65205 19.6412 6.95005 19.5112 7.85505C19.4692 8.14205 19.4272 8.39005 19.3892 8.59505C19.5172 8.69005 19.6562 8.79905 19.7962 8.92205C20.0462 9.14105 20.3322 9.42605 20.5552 9.76305C20.7742 10.093 20.9912 10.561 20.9572 11.113C20.9202 11.706 20.6052 12.2 20.1352 12.57ZM3.77324 4.36805C3.78824 5.71605 3.90024 6.80605 4.01124 7.56805C4.03724 7.74805 4.06324 7.90805 4.08724 8.05005H17.4552C17.4802 7.90805 17.5052 7.74705 17.5312 7.56805C17.6412 6.80605 17.7542 5.71605 17.7692 4.36805C17.6914 4.30225 17.611 4.23953 17.5282 4.18005C17.1672 3.91905 16.6192 3.59005 15.9312 3.26905C14.5482 2.62305 12.6952 2.05005 10.7712 2.05005C8.84724 2.05005 6.99424 2.62305 5.61124 3.26905C4.92324 3.59005 4.37524 3.91905 4.01524 4.17905C3.9321 4.23916 3.85137 4.30255 3.77324 4.36905V4.36805ZM3.55924 10.05L3.55624 10.052C3.38365 10.1671 3.21833 10.2926 3.06124 10.428C2.88324 10.584 2.74124 10.736 2.65524 10.868C2.63477 10.8977 2.6164 10.9288 2.60024 10.961C2.6144 10.974 2.62908 10.9863 2.64424 10.998C2.79424 11.116 3.11624 11.289 3.74424 11.46C3.86824 11.494 4.00124 11.526 4.14324 11.558L4.15224 11.56C4.65424 11.671 5.27224 11.77 6.02524 11.848C7.09224 11.959 8.43524 12.032 10.1132 12.048L10.7712 12.05C13.9982 12.05 16.0852 11.849 17.3912 11.56L17.3992 11.558C17.5422 11.526 17.6752 11.494 17.7992 11.46C18.4262 11.29 18.7492 11.116 18.8982 10.998C18.9134 10.9863 18.9281 10.974 18.9422 10.961C18.9264 10.9288 18.9084 10.8978 18.8882 10.868C18.7719 10.7046 18.6351 10.5567 18.4812 10.428C18.3245 10.2926 18.1595 10.1671 17.9872 10.052L17.9832 10.05H3.55924ZM10.4992 14.05C13.1412 14.05 15.1892 13.91 16.7592 13.666C16.8109 14.4814 16.6954 15.2986 16.42 16.0678C16.1446 16.8369 15.715 17.5417 15.1576 18.1389C14.6002 18.7362 13.9267 19.2133 13.1784 19.541C12.4301 19.8688 11.6227 20.0403 10.8058 20.045C9.98885 20.0497 9.17956 19.8875 8.42751 19.5684C7.67547 19.2493 6.99652 18.78 6.43227 18.1892C5.86802 17.5984 5.43036 16.8986 5.14611 16.1327C4.86187 15.3668 4.73703 14.5509 4.77924 13.735C6.24224 13.937 8.11724 14.05 10.4992 14.05Z" fill="black"/>
</svg>
