<svg width="22" height="22" viewBox="0 0 22 22" fill="none" xmlns="http://www.w3.org/2000/svg">
<path d="M13.7 21.7497H8.30001C3.36001 21.7497 1.26001 19.6397 1.26001 14.7097V10.2197C1.26001 9.80973 1.60001 9.46973 2.01001 9.46973C2.42001 9.46973 2.76001 9.80973 2.76001 10.2197V14.7097C2.76001 18.7997 4.21001 20.2497 8.30001 20.2497H13.69C17.78 20.2497 19.23 18.7997 19.23 14.7097V10.2197C19.23 9.80973 19.57 9.46973 19.98 9.46973C20.39 9.46973 20.73 9.80973 20.73 10.2197V14.7097C20.74 19.6397 18.63 21.7497 13.7 21.7497Z" fill="black"/>
<path d="M10.999 11.7498C9.89902 11.7498 8.89903 11.3198 8.18903 10.5298C7.47903 9.73976 7.14902 8.70976 7.25902 7.60976L7.92902 0.929756C7.96902 0.549756 8.28903 0.249756 8.67903 0.249756H13.349C13.739 0.249756 14.059 0.539756 14.099 0.929756L14.769 7.60976C14.879 8.70976 14.549 9.73976 13.839 10.5298C13.099 11.3198 12.099 11.7498 10.999 11.7498ZM9.34903 1.74976L8.74902 7.75976C8.67902 8.42976 8.87902 9.05976 9.29902 9.51976C10.149 10.4598 11.849 10.4598 12.699 9.51976C13.119 9.04976 13.319 8.41976 13.249 7.75976L12.649 1.74976H9.34903V1.74976Z" fill="black"/>
<path d="M17.31 11.7498C15.28 11.7498 13.47 10.1098 13.26 8.08976L12.56 1.07976C12.54 0.869756 12.61 0.659756 12.75 0.499756C12.89 0.339756 13.09 0.249756 13.31 0.249756H16.36C19.3 0.249756 20.67 1.47976 21.08 4.49976L21.36 7.27976C21.48 8.45976 21.12 9.57976 20.35 10.4298C19.58 11.2798 18.5 11.7498 17.31 11.7498ZM14.14 1.74976L14.76 7.93976C14.89 9.18976 16.05 10.2498 17.31 10.2498C18.07 10.2498 18.75 9.95976 19.24 9.42976C19.72 8.89976 19.94 8.18976 19.87 7.42976L19.59 4.67976C19.28 2.41976 18.55 1.74976 16.36 1.74976H14.14V1.74976Z" fill="black"/>
<path d="M4.63904 11.7498C3.44904 11.7498 2.36904 11.2798 1.59904 10.4298C0.829045 9.57976 0.469045 8.45976 0.589045 7.27976L0.859045 4.52976C1.27904 1.47976 2.64904 0.249756 5.58905 0.249756H8.63904C8.84904 0.249756 9.04905 0.339756 9.19905 0.499756C9.34905 0.659756 9.40904 0.869756 9.38904 1.07976L8.68904 8.08976C8.47904 10.1098 6.66904 11.7498 4.63904 11.7498ZM5.58905 1.74976C3.39904 1.74976 2.66904 2.40976 2.34904 4.69976L2.07904 7.42976C1.99904 8.18976 2.22904 8.89976 2.70904 9.42976C3.18904 9.95976 3.86904 10.2498 4.63904 10.2498C5.89904 10.2498 7.06904 9.18976 7.18904 7.93976L7.80904 1.74976H5.58905V1.74976Z" fill="black"/>
<path d="M13.5 21.7498H8.5C8.09 21.7498 7.75 21.4098 7.75 20.9998V18.4998C7.75 16.3998 8.9 15.2498 11 15.2498C13.1 15.2498 14.25 16.3998 14.25 18.4998V20.9998C14.25 21.4098 13.91 21.7498 13.5 21.7498ZM9.25 20.2498H12.75V18.4998C12.75 17.2398 12.26 16.7498 11 16.7498C9.74 16.7498 9.25 17.2398 9.25 18.4998V20.2498Z" fill="black"/>
</svg>
