<svg width="32" height="24" viewBox="0 0 32 24" fill="none" xmlns="http://www.w3.org/2000/svg">
<path d="M27.9914 5.99816H23.9926V0.999693C23.9926 0.734558 23.8873 0.480282 23.6998 0.292803C23.5123 0.105325 23.2581 0 22.9929 0H0.999693C0.734558 0 0.480282 0.105325 0.292803 0.292803C0.105324 0.480282 0 0.734558 0 0.999693V18.9942C0 19.2593 0.105324 19.5136 0.292803 19.7011C0.480282 19.8885 0.734558 19.9939 0.999693 19.9939H1.99939V1.99939H21.9932V15.4852C21.381 15.6801 20.8182 16.0054 20.3436 16.4385C19.869 16.8717 19.4939 17.4025 19.2441 17.9945H12.4262C12.0821 17.1738 11.5024 16.4737 10.7604 15.9825C10.0183 15.4914 9.1473 15.2314 8.25746 15.2353C7.412 15.254 6.59002 15.5171 5.89085 15.9928C5.19168 16.4685 4.64523 17.1365 4.31752 17.9161C3.98981 18.6957 3.89487 19.5535 4.04416 20.3859C4.19345 21.2183 4.5806 21.9896 5.15881 22.6068C5.73703 23.2239 6.48158 23.6603 7.3025 23.8634C8.12342 24.0665 8.98559 24.0275 9.78484 23.7512C10.5841 23.4749 11.2862 22.973 11.8064 22.3062C12.3266 21.6395 12.6425 20.8363 12.7161 19.9939H18.9942C19.1108 21.0937 19.6304 22.1114 20.4526 22.8511C21.2749 23.5908 22.3418 24 23.4478 24C24.5538 24 25.6207 23.5908 26.443 22.8511C27.2652 22.1114 27.7847 21.0937 27.9014 19.9939H31.9902V9.99693C31.9902 8.93639 31.5689 7.91928 30.819 7.16937C30.069 6.41945 29.0519 5.99816 27.9914 5.99816ZM8.25746 21.9932C7.93271 22.0143 7.60709 21.9686 7.30073 21.8588C6.99437 21.749 6.71379 21.5776 6.47633 21.355C6.23888 21.1325 6.0496 20.8636 5.92021 20.565C5.79081 20.2664 5.72405 19.9444 5.72405 19.619C5.72405 19.2935 5.79081 18.9716 5.92021 18.673C6.0496 18.3744 6.23888 18.1055 6.47633 17.8829C6.71379 17.6604 6.99437 17.4889 7.30073 17.3792C7.60709 17.2694 7.93271 17.2236 8.25746 17.2447C8.58221 17.2236 8.90784 17.2694 9.2142 17.3792C9.52056 17.4889 9.80114 17.6604 10.0386 17.8829C10.276 18.1055 10.4653 18.3744 10.5947 18.673C10.7241 18.9716 10.7909 19.2935 10.7909 19.619C10.7909 19.9444 10.7241 20.2664 10.5947 20.565C10.4653 20.8636 10.276 21.1325 10.0386 21.355C9.80114 21.5776 9.52056 21.749 9.2142 21.8588C8.90784 21.9686 8.58221 22.0143 8.25746 21.9932ZM23.4228 21.9932C22.9576 21.9698 22.5096 21.8103 22.1342 21.5345C21.7588 21.2588 21.4727 20.8789 21.3111 20.4421C21.1496 20.0052 21.1199 19.5306 21.2256 19.077C21.3313 18.6233 21.5679 18.2107 21.9059 17.8903C22.2439 17.5699 22.6685 17.3557 23.1271 17.2743C23.5857 17.193 24.0581 17.248 24.4857 17.4326C24.9134 17.6172 25.2774 17.9232 25.5327 18.3127C25.788 18.7023 25.9234 19.1582 25.922 19.624C25.913 19.9443 25.8409 20.2598 25.7098 20.5523C25.5788 20.8448 25.3914 21.1086 25.1584 21.3286C24.9254 21.5486 24.6513 21.7206 24.3517 21.8346C24.0522 21.9487 23.7332 22.0026 23.4128 21.9932H23.4228ZM29.9908 10.9966H23.9926V7.99754H27.9914C28.5217 7.99754 29.0302 8.20819 29.4052 8.58315C29.7801 8.95811 29.9908 9.46666 29.9908 9.99693V10.9966Z" fill="black"/>
</svg>
