<svg width="21" height="22" viewBox="0 0 21 22" fill="none" xmlns="http://www.w3.org/2000/svg">
<path d="M13.6574 21.3647H13.5274C9.08745 21.3647 6.94745 19.6147 6.57745 15.6947C6.53745 15.2847 6.83745 14.9147 7.25745 14.8747C7.65745 14.8347 8.03745 15.1447 8.07745 15.5547C8.36745 18.6947 9.84745 19.8647 13.5374 19.8647H13.6674C17.7374 19.8647 19.1774 18.4247 19.1774 14.3547V7.83471C19.1774 3.76471 17.7374 2.32471 13.6674 2.32471H13.5374C9.82745 2.32471 8.34745 3.51471 8.07745 6.71471C8.02745 7.12471 7.67745 7.43471 7.25745 7.39471C7.15889 7.38701 7.06282 7.35992 6.97475 7.31501C6.88669 7.2701 6.80835 7.20824 6.74425 7.13299C6.68014 7.05773 6.63152 6.97056 6.60118 6.87647C6.57085 6.78239 6.55938 6.68324 6.56745 6.58471C6.90745 2.60471 9.05745 0.824707 13.5274 0.824707H13.6574C18.5674 0.824707 20.6674 2.92471 20.6674 7.83471V14.3547C20.6674 19.2647 18.5674 21.3647 13.6574 21.3647Z" fill="black"/>
<path d="M13.4174 11.8447H2.03735C1.62735 11.8447 1.28735 11.5047 1.28735 11.0947C1.28735 10.6847 1.62735 10.3447 2.03735 10.3447H13.4174C13.8274 10.3447 14.1674 10.6847 14.1674 11.0947C14.1674 11.5047 13.8274 11.8447 13.4174 11.8447Z" fill="black"/>
<path d="M4.26738 15.1947C4.07738 15.1947 3.88738 15.1247 3.73738 14.9747L0.387379 11.6247C0.247899 11.4836 0.169678 11.2931 0.169678 11.0947C0.169678 10.8963 0.247899 10.7058 0.387379 10.5647L3.73738 7.21469C4.02738 6.92469 4.50738 6.92469 4.79738 7.21469C5.08738 7.50469 5.08738 7.98469 4.79738 8.27469L1.97738 11.0947L4.79738 13.9147C5.08738 14.2047 5.08738 14.6847 4.79738 14.9747C4.65738 15.1247 4.45738 15.1947 4.26738 15.1947Z" fill="black"/>
</svg>
