<svg width="444" height="679" viewBox="0 0 444 679" fill="none" xmlns="http://www.w3.org/2000/svg">
<mask id="path-1-inside-1_506_21548" fill="white">
<path d="M0 87.4642C0 73.593 11.2448 62.3483 25.116 62.3483H418.562C432.433 62.3483 443.678 73.5931 443.678 87.4643V653.884C443.678 667.755 432.433 679 418.562 679H25.116C11.2448 679 0 667.755 0 653.884V87.4642Z"/>
</mask>
<path d="M0 87.4642C0 73.593 11.2448 62.3483 25.116 62.3483H418.562C432.433 62.3483 443.678 73.5931 443.678 87.4643V653.884C443.678 667.755 432.433 679 418.562 679H25.116C11.2448 679 0 667.755 0 653.884V87.4642Z" fill="white"/>
<path d="M-31.395 87.4643C-31.395 59.7219 -8.90536 37.2323 18.837 37.2323H424.841C452.583 37.2323 475.073 59.7219 475.073 87.4643H412.283H31.395H-31.395ZM475.073 672.721C475.073 703.931 449.772 729.232 418.562 729.232H25.116C-6.09416 729.232 -31.395 703.931 -31.395 672.721L31.395 628.768H412.283L475.073 672.721ZM25.116 729.232C-6.09416 729.232 -31.395 703.931 -31.395 672.721V87.4643C-31.395 59.7219 -8.90536 37.2323 18.837 37.2323L31.395 87.4643V628.768L25.116 729.232ZM424.841 37.2323C452.583 37.2323 475.073 59.7219 475.073 87.4643V672.721C475.073 703.931 449.772 729.232 418.562 729.232L412.283 628.768V87.4643L424.841 37.2323Z" fill="black" mask="url(#path-1-inside-1_506_21548)"/>
<path d="M120.704 66.6117C120.704 56.0037 129.304 47.4042 139.912 47.4042H306.098C314.861 47.4042 321.965 54.5081 321.965 63.2713V72.4574C321.965 86.2939 310.748 97.5106 296.912 97.5106H145.758C131.921 97.5106 120.704 86.2939 120.704 72.4574V66.6117Z" fill="#E84B01"/>
<path d="M226.087 66.2573C242.688 66.2573 256.688 53.3287 256.688 36.7286C256.688 20.1284 242.688 7.19985 226.087 7.19985C209.485 7.19985 195.486 20.1284 195.486 36.7286C195.486 53.3287 209.485 66.2573 226.087 66.2573Z" fill="white" stroke="#E84B01" stroke-width="13.6003"/>
</svg>
