<svg width="17" height="16" viewBox="0 0 17 16" fill="none" xmlns="http://www.w3.org/2000/svg">
<path d="M8.18 7C8.73 7 9.18 7.45 9.18 8C9.18 8.55 8.73 9 8.18 9C7.63 9 7.18 8.55 7.18 8C7.18 7.45 7.63 7 8.18 7ZM8.18 5C6.52 5 5.18 6.34 5.18 8C5.18 9.66 6.52 11 8.18 11C9.84 11 11.18 9.66 11.18 8C11.18 6.34 9.84 5 8.18 5ZM14.43 8C14.43 7.88 14.43 7.75 14.42 7.63L16.36 6.16L13.86 1.83L11.62 2.77C11.42 2.64 11.2 2.51 10.98 2.4L10.68 0H5.68L5.38 2.41C5.16 2.52 4.95 2.65 4.74 2.78L2.5 1.83L0 6.16L1.94 7.63C1.93 7.75 1.93 7.88 1.93 8C1.93 8.12 1.93 8.25 1.94 8.37L0 9.84L2.5 14.17L4.74 13.23C4.94 13.36 5.16 13.49 5.38 13.6L5.68 16H10.68L10.98 13.59C11.2 13.48 11.41 13.36 11.62 13.22L13.86 14.16L16.36 9.83L14.42 8.36C14.43 8.25 14.43 8.12 14.43 8ZM13.01 11.64L11.28 10.91C10.72 11.51 9.98 11.95 9.15 12.14L8.91 14H7.45L7.22 12.14C6.39 11.95 5.65 11.51 5.09 10.91L3.36 11.64L2.63 10.37L4.12 9.24C4 8.85 3.94 8.44 3.94 8.01C3.94 7.58 4 7.17 4.12 6.78L2.63 5.65L3.36 4.38L5.09 5.11C5.65 4.51 6.39 4.07 7.22 3.88L7.45 2H8.92L9.15 3.86C9.98 4.05 10.72 4.49 11.28 5.09L13.01 4.36L13.74 5.63L12.25 6.76C12.37 7.15 12.43 7.56 12.43 7.99C12.43 8.42 12.37 8.83 12.25 9.22L13.74 10.35L13.01 11.64Z" fill="black"/>
</svg>
