<svg width="23" height="22" viewBox="0 0 23 22" fill="none" xmlns="http://www.w3.org/2000/svg">
<path d="M14.4175 21.6997H8.41748C2.98748 21.6997 0.66748 19.3797 0.66748 13.9497V7.94971C0.66748 2.51971 2.98748 0.199707 8.41748 0.199707H14.4175C19.8475 0.199707 22.1675 2.51971 22.1675 7.94971V13.9497C22.1675 19.3797 19.8475 21.6997 14.4175 21.6997ZM8.41748 1.69971C3.80748 1.69971 2.16748 3.33971 2.16748 7.94971V13.9497C2.16748 18.5597 3.80748 20.1997 8.41748 20.1997H14.4175C19.0275 20.1997 20.6675 18.5597 20.6675 13.9497V7.94971C20.6675 3.33971 19.0275 1.69971 14.4175 1.69971H8.41748Z" fill="white"/>
</svg>
